<svg xmlns="http://www.w3.org/2000/svg" viewBox="0 0 512 512"><path d="M480 0H32C14.3 0 0 14.3 0 32v448c0 17.7 14.3 32 32 32h448c17.7 0 32-14.3 32-32V32c0-17.7-14.3-32-32-32z" fill="#d54b3d"/><path d="M106 113.8h300v284.4H106V113.8z" opacity=".3" fill="#fff"/><path d="M109.2 113.8h-6.9c-16.7 0-30.4 14.1-30.4 31.4v221.6c0 17.3 13.6 31.4 30.4 31.4h16.1V192.7L256 302.2l137.5-109.5v205.5h16.1c16.8 0 30.4-14.1 30.4-31.4V145.2c0-17.3-13.6-31.4-30.4-31.4h-6.9L256 239.4 109.2 113.8z" fill="#fff"/></svg>