<svg xmlns="http://www.w3.org/2000/svg" xmlns:xlink="http://www.w3.org/1999/xlink" viewBox="0 0 512 512"><defs><path id="a" d="M480 0H32C14.3 0 0 14.3 0 32v448c0 17.7 14.3 32 32 32h448c17.7 0 32-14.3 32-32V32c0-17.7-14.3-32-32-32zm-27.8 154.8c-10.1 15.2-22.9 28.4-37.7 39.1.2 3.2.2 6.5.2 9.8 0 99.8-76 214.8-214.8 214.8-41 0-81.2-11.7-115.7-33.9 6 .7 12 1 18 1 34 .1 67-11.3 93.8-32.3-32.3-.6-60.7-21.7-70.6-52.4 11.3 2.2 23 1.7 34.1-1.3-35.2-7.1-60.6-38.1-60.6-74v-1c10.5 5.8 22.2 9.1 34.2 9.4-21-14-33.6-37.6-33.6-62.8 0-13.3 3.5-26.5 10.2-38 38.3 47.2 94.9 75.8 155.6 78.9-6.2-26.3 2.2-54 21.9-72.5 30.5-28.5 78.2-26.9 106.7 3.6 16.9-3.3 33.1-9.5 47.9-18.3-5.6 17.5-17.4 32.3-33.2 41.8 15.5-1.9 30.1-5.9 43.6-11.9z"/></defs><use xlink:href="#a" overflow="visible" fill-rule="evenodd" clip-rule="evenodd" fill="#1da1f2"/><clipPath id="b"><use xlink:href="#a" overflow="visible"/></clipPath><g clip-path="url(#b)"><defs><path id="c" d="M-32 0h544v512H-32z"/></defs><use xlink:href="#c" overflow="visible" fill="#1da1f2"/></g></svg>