<svg xmlns="http://www.w3.org/2000/svg" viewBox="0 0 512 512"><path d="M480 0H32C14.3 0 0 14.3 0 32v448c0 17.7 14.3 32 32 32h448c17.7 0 32-14.3 32-32V32c0-17.7-14.3-32-32-32zM84 424h76V198H84v226zm37.8-258h-.5c-25 0-41.3-17.4-41.3-39 0-22.1 16.7-39 42.3-39 25.5 0 41.3 16.8 41.7 39 0 21.7-16.2 39-42.2 39zM432 424h-75.3V302.7c0-30.5-10.9-51.3-38.2-51.3-20.8 0-33.2 14-38.7 27.6-2 4.8-2.5 11.6-2.5 18.4V424H202s1-205.4 0-226.7h75.3v32.1c10-15.4 27.9-37.5 67.9-37.5 49.6 0 86.7 32.4 86.7 102V424h.1z" fill-rule="evenodd" clip-rule="evenodd" fill="#0073b1"/><defs><path id="a" d="M480 0H32C14.3 0 0 14.3 0 32v448c0 17.7 14.3 32 32 32h448c17.7 0 32-14.3 32-32V32c0-17.7-14.3-32-32-32zM84 424h76V198H84v226zm37.8-258h-.5c-25 0-41.3-17.4-41.3-39 0-22.1 16.7-39 42.3-39 25.5 0 41.3 16.8 41.7 39 0 21.7-16.2 39-42.2 39zM432 424h-75.3V302.7c0-30.5-10.9-51.3-38.2-51.3-20.8 0-33.2 14-38.7 27.6-2 4.8-2.5 11.6-2.5 18.4V424H202s1-205.4 0-226.7h75.3v32.1c10-15.4 27.9-37.5 67.9-37.5 49.6 0 86.7 32.4 86.7 102V424h.1z"/></defs></svg>