<svg xmlns="http://www.w3.org/2000/svg" viewBox="0 0 512 512"><path d="M480 512H32a32 32 0 01-32-32V32A32 32 0 0132 0h448a32 32 0 0132 32v448a32 32 0 01-32 32z" fill="#555"/><path d="M396.6 342.1c0-5.5-1.6-11.1-6.3-15l-46.6-46.6c-3.9-4.7-9.5-6.3-15.8-6.3s-11.1 2.4-15.8 7.1l3.9 3.9 4.7 4.7c.8.8 2.4 2.4 3.9 4.7a7.2 7.2 0 012.4 5.5c.8 1.6.8 3.9.8 6.3 0 5.5-1.6 11.1-6.3 15a20.3 20.3 0 01-15 6.3c-2.4 0-3.9 0-6.3-.8-1.6-.8-3.9-1.6-5.5-3.2-2.4-.8-3.2-2.4-4.7-3.2l-4.7-4.7c-2.4-2.4-3.2-3.9-3.9-3.9-4.7 3.9-7.1 9.5-7.1 15.8s1.6 11.8 6.3 15.8l45.8 46.6c4.7 3.9 9.5 6.3 15.8 6.3 5.5 0 11.1-2.4 15-6.3l33.2-32.4a20 20 0 006.2-15.6zM237.8 183.3c0-6.3-1.6-11.1-6.3-15L185.7 121a23.7 23.7 0 00-15.8-6.3c-5.5 0-11.1 2.4-15 6.3l-33.2 33.2a18.7 18.7 0 00-6.3 15c0 6.3 1.6 11.1 6.3 15l46.6 47.4c3.9 3.9 9.5 6.3 15.8 6.3s11.1-2.4 15.8-7.1c0-.8-1.6-2.4-3.9-4.7l-4.7-4.7-3.9-3.9c-1.6-2.4-2.4-3.9-2.4-5.5-.8-2.4-.8-3.9-.8-6.3 0-6.3 1.6-11.1 6.3-15.8 3.9-3.9 8.7-6.3 15-6.3 2.4 0 3.9.8 6.3.8 1.6.8 3.9 1.6 5.5 3.2 2.4 1.6 3.2 2.4 4.7 3.2l4.7 4.7c2.3 2.3 3.2 3.9 3.9 4.7 4.9-5 7.2-10.5 7.2-16.9zM440 342.1c0 18.2-6.3 34-19 45.8L387.9 421a62 62 0 01-45.8 19c-18.2 0-34-6.3-45.8-19l-46.6-47.4c-12.6-11.8-19-27.6-19-45.8s6.3-34 19.7-46.6l-19.7-19.7c-12.6 12.6-28.4 19.7-46.6 19.7s-34-6.3-46.6-19L91 214.9c-12.6-12.6-19-27.6-19-45.8s6.3-33.2 19-45.8l33.2-33.2C136.8 77.5 151.8 72 169.9 72s34 6.3 45.8 19l46.6 46.6c12.6 12.6 19 27.6 19 45.8s-6.3 34-19.7 47.4l19.7 19.7c12.6-13.4 28.4-19.7 46.6-19.7s34 6.3 46.6 19l46.6 46.6a62.8 62.8 0 0118.9 45.7z" fill="#fff"/></svg>