<svg xmlns="http://www.w3.org/2000/svg" width="1270" height="242" fill="none"><mask id="a" width="1270" height="242" x="0" y="0" maskUnits="userSpaceOnUse" style="mask-type:alpha"><g clip-path="url(#a)"><path fill="#FEC8BF" d="M1270 0H0v242h1270V0z"/></g></mask><g mask="url(#a)"><path fill="#FEC8BF" d="M0 0h1270v242H0z"/><path fill="#FEECE9" d="M97 149.932c28.335 0 51.374 23.139 51.374 51.568S125.323 253.068 97 253.068c-28.323 0-51.374-23.139-51.374-51.568S68.677 149.932 97 149.932zM97 68C23.55 68-36 127.775-36 201.5S23.55 335 97 335c73.449 0 133-59.775 133-133.5S170.449 68 97 68zm700.5-221.065c34.174 0 66.31 13.373 90.477 37.656 24.168 24.283 37.477 56.571 37.477 90.909 0 34.338-13.309 66.626-37.477 90.91-24.167 24.282-56.303 37.655-90.477 37.655-34.174 0-66.31-13.373-90.477-37.656-24.168-24.283-37.477-56.571-37.477-90.909 0-34.338 13.309-66.626 37.477-90.909 24.167-24.283 56.303-37.656 90.477-37.656zm0-81.935C681.792-235 588-140.748 588-24.5S681.805 186 797.5 186 1007 91.748 1007-24.5 913.208-235 797.5-235zM406 228.112l51.702 48.15 117.425-126.111L523.425 102 406 228.112zM381-19h-90l-45 78.494h90L381 138l45-78.506L381-19zm797.1 113.797c7.78 29.052 37.64 46.292 66.7 38.507 29.05-7.785 46.3-37.648 38.51-66.7-7.78-29.053-37.65-46.293-66.7-38.507-29.06 7.785-46.3 37.648-38.51 66.7zM1059.72 96L1013 149.004l129.28 113.923 46.72-53.004L1059.72 96z"/></g><defs><clipPath id="a"><path fill="#fff" d="M0 0h1270v242H0z"/></clipPath></defs></svg>