<svg xmlns="http://www.w3.org/2000/svg" viewBox="0 0 69 69"><mask id="a" width="103.6" height="103.7" x="-18.2" y="-8.2" maskUnits="userSpaceOnUse"><circle cx="34.5" cy="34.5" r="34.5" fill="#fff" fill-rule="evenodd" clip-rule="evenodd"/></mask><mask id="b" width="103.6" height="103.7" x="-31.2" y="-21.2" maskUnits="userSpaceOnUse"><path fill="#fff" fill-rule="evenodd" d="M21.1 0c7.6 0 13.7 6.1 13.7 13.7 0 3.7-1.5 7.2-4.1 9.8 6.3 2.7 10.4 8.8 10.4 15.7V58H0V39.2c0-7.1 4.5-13.5 11.2-16-5.3-5.5-5.1-14.2.4-19.4 2.6-2.4 6-3.8 9.5-3.8z" clip-rule="evenodd"/></mask><g mask="url(#a)"><path fill="#ff9280" fill-rule="evenodd" d="M-4-1h75v72H-4z" clip-rule="evenodd"/><path fill="#ff492c" fill-rule="evenodd" d="M42.7 16L71 41v30H30.9z" clip-rule="evenodd"/><g mask="url(#b)" transform="translate(13 13)"><path fill="#ffdbd5" fill-rule="evenodd" d="M-31.2 32.6l52-53.8 51.6 49.8-52 53.9z" clip-rule="evenodd"/></g></g></svg>